<mxfile host="app.diagrams.net" modified="2022-08-26T09:49:01.133Z" agent="5.0 (Macintosh; Intel Mac OS X 10_15_7) AppleWebKit/605.1.15 (KHTML, like Gecko) Version/15.4 Safari/605.1.15" etag="rYbHJqEHsyaBsbYZSTiM" version="20.2.7" type="github">
  <diagram id="fMrkv8kfodJ15Gqp6ZQx" name="Page-1">
    <mxGraphModel dx="1109" dy="778" grid="1" gridSize="10" guides="1" tooltips="1" connect="1" arrows="1" fold="1" page="1" pageScale="1" pageWidth="827" pageHeight="1169" math="0" shadow="0">
      <root>
        <mxCell id="0" />
        <mxCell id="1" parent="0" />
        <mxCell id="o4HDEi1_yA6Ff29VWxvb-14" style="edgeStyle=orthogonalEdgeStyle;rounded=0;orthogonalLoop=1;jettySize=auto;html=1;exitX=0.5;exitY=1;exitDx=0;exitDy=0;entryX=0;entryY=0.5;entryDx=0;entryDy=0;startArrow=none;startFill=0;" edge="1" parent="1" source="o4HDEi1_yA6Ff29VWxvb-2" target="o4HDEi1_yA6Ff29VWxvb-7">
          <mxGeometry relative="1" as="geometry" />
        </mxCell>
        <mxCell id="o4HDEi1_yA6Ff29VWxvb-2" value="autobidding&lt;br&gt;scheduler" style="ellipse;whiteSpace=wrap;html=1;aspect=fixed;" vertex="1" parent="1">
          <mxGeometry x="400" y="470" width="80" height="80" as="geometry" />
        </mxCell>
        <mxCell id="o4HDEi1_yA6Ff29VWxvb-3" value="autobidding&lt;br&gt;calculator" style="ellipse;whiteSpace=wrap;html=1;aspect=fixed;" vertex="1" parent="1">
          <mxGeometry x="670" y="470" width="80" height="80" as="geometry" />
        </mxCell>
        <mxCell id="o4HDEi1_yA6Ff29VWxvb-24" style="edgeStyle=orthogonalEdgeStyle;rounded=0;orthogonalLoop=1;jettySize=auto;html=1;exitX=1;exitY=0.5;exitDx=0;exitDy=0;startArrow=none;startFill=0;endArrow=classicThin;endFill=1;" edge="1" parent="1" source="o4HDEi1_yA6Ff29VWxvb-4" target="o4HDEi1_yA6Ff29VWxvb-2">
          <mxGeometry relative="1" as="geometry" />
        </mxCell>
        <mxCell id="o4HDEi1_yA6Ff29VWxvb-4" value="auction&lt;br&gt;fastbiling" style="ellipse;whiteSpace=wrap;html=1;aspect=fixed;" vertex="1" parent="1">
          <mxGeometry x="220" y="380" width="60" height="60" as="geometry" />
        </mxCell>
        <mxCell id="o4HDEi1_yA6Ff29VWxvb-11" style="edgeStyle=orthogonalEdgeStyle;rounded=0;orthogonalLoop=1;jettySize=auto;html=1;" edge="1" parent="1" source="o4HDEi1_yA6Ff29VWxvb-5" target="o4HDEi1_yA6Ff29VWxvb-2">
          <mxGeometry relative="1" as="geometry" />
        </mxCell>
        <mxCell id="o4HDEi1_yA6Ff29VWxvb-5" value="click aggregator" style="ellipse;whiteSpace=wrap;html=1;aspect=fixed;" vertex="1" parent="1">
          <mxGeometry x="190" y="470" width="80" height="80" as="geometry" />
        </mxCell>
        <mxCell id="o4HDEi1_yA6Ff29VWxvb-17" style="edgeStyle=orthogonalEdgeStyle;rounded=0;orthogonalLoop=1;jettySize=auto;html=1;exitX=1;exitY=0.5;exitDx=0;exitDy=0;entryX=0;entryY=0.5;entryDx=0;entryDy=0;startArrow=none;startFill=0;endArrow=classic;endFill=1;" edge="1" parent="1" source="o4HDEi1_yA6Ff29VWxvb-6" target="o4HDEi1_yA6Ff29VWxvb-8">
          <mxGeometry relative="1" as="geometry" />
        </mxCell>
        <mxCell id="o4HDEi1_yA6Ff29VWxvb-6" value="search items" style="ellipse;whiteSpace=wrap;html=1;aspect=fixed;" vertex="1" parent="1">
          <mxGeometry x="310" y="680" width="80" height="80" as="geometry" />
        </mxCell>
        <mxCell id="o4HDEi1_yA6Ff29VWxvb-15" style="edgeStyle=orthogonalEdgeStyle;rounded=0;orthogonalLoop=1;jettySize=auto;html=1;exitX=1;exitY=0.5;exitDx=0;exitDy=0;entryX=0.5;entryY=0;entryDx=0;entryDy=0;startArrow=classic;startFill=1;endArrow=none;endFill=0;strokeColor=none;" edge="1" parent="1" source="o4HDEi1_yA6Ff29VWxvb-7" target="o4HDEi1_yA6Ff29VWxvb-6">
          <mxGeometry relative="1" as="geometry" />
        </mxCell>
        <mxCell id="o4HDEi1_yA6Ff29VWxvb-16" style="edgeStyle=orthogonalEdgeStyle;rounded=0;orthogonalLoop=1;jettySize=auto;html=1;exitX=1;exitY=0.5;exitDx=0;exitDy=0;startArrow=none;startFill=0;endArrow=classic;endFill=1;" edge="1" parent="1" source="o4HDEi1_yA6Ff29VWxvb-7">
          <mxGeometry relative="1" as="geometry">
            <mxPoint x="352.0526315789475" y="680" as="targetPoint" />
            <Array as="points">
              <mxPoint x="440" y="660" />
              <mxPoint x="352" y="660" />
            </Array>
          </mxGeometry>
        </mxCell>
        <mxCell id="o4HDEi1_yA6Ff29VWxvb-7" value="databus" style="shape=step;perimeter=stepPerimeter;whiteSpace=wrap;html=1;fixedSize=1;direction=south;" vertex="1" parent="1">
          <mxGeometry x="402.5" y="600" width="75" height="60" as="geometry" />
        </mxCell>
        <mxCell id="o4HDEi1_yA6Ff29VWxvb-18" style="edgeStyle=orthogonalEdgeStyle;rounded=0;orthogonalLoop=1;jettySize=auto;html=1;exitX=1;exitY=0.5;exitDx=0;exitDy=0;entryX=0;entryY=0.5;entryDx=0;entryDy=0;startArrow=none;startFill=0;endArrow=classic;endFill=1;" edge="1" parent="1" source="o4HDEi1_yA6Ff29VWxvb-8" target="o4HDEi1_yA6Ff29VWxvb-9">
          <mxGeometry relative="1" as="geometry" />
        </mxCell>
        <mxCell id="o4HDEi1_yA6Ff29VWxvb-8" value="sphinx" style="ellipse;whiteSpace=wrap;html=1;aspect=fixed;" vertex="1" parent="1">
          <mxGeometry x="413.5" y="680" width="80" height="80" as="geometry" />
        </mxCell>
        <mxCell id="o4HDEi1_yA6Ff29VWxvb-9" value="search&amp;nbsp;&lt;br&gt;gateway" style="ellipse;whiteSpace=wrap;html=1;aspect=fixed;" vertex="1" parent="1">
          <mxGeometry x="520" y="680" width="80" height="80" as="geometry" />
        </mxCell>
        <mxCell id="o4HDEi1_yA6Ff29VWxvb-19" value="&amp;nbsp;горячие айтемы&lt;br&gt;статистика кликов" style="text;html=1;align=center;verticalAlign=middle;resizable=0;points=[];autosize=1;strokeColor=none;fillColor=none;" vertex="1" parent="1">
          <mxGeometry x="265" y="470" width="130" height="40" as="geometry" />
        </mxCell>
        <mxCell id="o4HDEi1_yA6Ff29VWxvb-20" value="статистика кликов, деньги&lt;br&gt;&lt;br&gt;&amp;nbsp;параметры автостратегии" style="text;html=1;align=center;verticalAlign=middle;resizable=0;points=[];autosize=1;strokeColor=none;fillColor=none;" vertex="1" parent="1">
          <mxGeometry x="482" y="483" width="180" height="60" as="geometry" />
        </mxCell>
        <mxCell id="o4HDEi1_yA6Ff29VWxvb-22" value="сколько денег осталось" style="text;html=1;align=center;verticalAlign=middle;resizable=0;points=[];autosize=1;strokeColor=none;fillColor=none;rotation=0;" vertex="1" parent="1">
          <mxGeometry x="280" y="380" width="160" height="30" as="geometry" />
        </mxCell>
        <mxCell id="o4HDEi1_yA6Ff29VWxvb-26" style="edgeStyle=orthogonalEdgeStyle;rounded=0;orthogonalLoop=1;jettySize=auto;html=1;exitX=1;exitY=0.5;exitDx=0;exitDy=0;startArrow=none;startFill=0;endArrow=classicThin;endFill=1;" edge="1" parent="1" source="o4HDEi1_yA6Ff29VWxvb-25" target="o4HDEi1_yA6Ff29VWxvb-5">
          <mxGeometry relative="1" as="geometry" />
        </mxCell>
        <mxCell id="o4HDEi1_yA6Ff29VWxvb-25" value="флинк" style="shape=step;perimeter=stepPerimeter;whiteSpace=wrap;html=1;fixedSize=1;" vertex="1" parent="1">
          <mxGeometry x="60" y="480" width="100" height="60" as="geometry" />
        </mxCell>
        <mxCell id="o4HDEi1_yA6Ff29VWxvb-27" value="&amp;nbsp;параметры автостратегии" style="text;html=1;align=center;verticalAlign=middle;resizable=0;points=[];autosize=1;strokeColor=none;fillColor=none;" vertex="1" parent="1">
          <mxGeometry x="425" y="570" width="180" height="30" as="geometry" />
        </mxCell>
        <mxCell id="o4HDEi1_yA6Ff29VWxvb-30" style="edgeStyle=orthogonalEdgeStyle;rounded=0;orthogonalLoop=1;jettySize=auto;html=1;entryX=0;entryY=0.5;entryDx=0;entryDy=0;startArrow=none;startFill=0;" edge="1" parent="1">
          <mxGeometry relative="1" as="geometry">
            <mxPoint x="493.5" y="510" as="sourcePoint" />
            <mxPoint x="653.5000000000064" y="508.95" as="targetPoint" />
            <Array as="points">
              <mxPoint x="583.5" y="508.95" />
              <mxPoint x="583.5" y="508.95" />
            </Array>
          </mxGeometry>
        </mxCell>
        <mxCell id="o4HDEi1_yA6Ff29VWxvb-31" style="edgeStyle=orthogonalEdgeStyle;rounded=0;orthogonalLoop=1;jettySize=auto;html=1;entryX=0;entryY=0.5;entryDx=0;entryDy=0;startArrow=classic;startFill=1;endArrow=none;endFill=0;" edge="1" parent="1">
          <mxGeometry relative="1" as="geometry">
            <mxPoint x="493.5" y="517.05" as="sourcePoint" />
            <mxPoint x="653.5000000000064" y="516" as="targetPoint" />
            <Array as="points">
              <mxPoint x="583.5" y="516" />
              <mxPoint x="583.5" y="516" />
            </Array>
          </mxGeometry>
        </mxCell>
      </root>
    </mxGraphModel>
  </diagram>
</mxfile>
